<svg xmlns="http://www.w3.org/2000/svg" width="97.868" height="82"><g id="Group_10" transform="translate(-1224.07 -355.752)"><path id="Path_33" d="M1231.859 407.078h40.877v14.9h-40.877zm37.759 3.194h-34.608v8.566h34.608z" transform="translate(-1.402 -9.239)" fill="#03297d"/><path id="Path_34" d="M1280.641 390.451a14.2 14.2 0 1114.177-14.2 14.257 14.257 0 01-14.177 14.2zm7.71-6.385a11.025 11.025 0 10-15.9-15.262 10.885 10.885 0 00.424 15.2 12.029 12.029 0 011.215-2.686 10.676 10.676 0 012.021-2.1c-2.377-3.75-2.312-6.755.168-9.1a6.3 6.3 0 0110.437 2.993 6.521 6.521 0 01-1.653 6.113 8.33 8.33 0 013.289 4.843zm-12.409 2.191a10.769 10.769 0 009.354-.013 4.71 4.71 0 10-9.354.013zm7.834-11.6a3.16 3.16 0 10-3.195 3.176 3.167 3.167 0 003.196-3.176z" transform="translate(-7.622 -1.134)" fill="#ec4117"/><path id="Path_35" d="M1257.01 376.6a12.622 12.622 0 11-12.616-12.628 12.681 12.681 0 0112.616 12.628zm-8.818 1.312a6.729 6.729 0 012.548 5.6 9.344 9.344 0 002.435-10.476 9.475 9.475 0 00-17.942 1.1c-1.078 3.767.732 7.948 2.753 9.242.49-3.222.591-3.44 2.564-5.51-1.338-2.922-1.018-5.063.989-6.612a4.682 4.682 0 015.76.053c1.962 1.591 2.264 3.744.894 6.607zm-.7 7.6a15.433 15.433 0 00.017-3.069 3.158 3.158 0 00-6.239-.064 13.523 13.523 0 00.018 3.142 8.934 8.934 0 006.206-.001zm-1.53-10.537a1.578 1.578 0 10-1.517 1.613 1.578 1.578 0 001.519-1.605z" transform="translate(-1.385 -1.48)" fill="#03297d"/><path id="Path_36" d="M1317.51 363.975a12.622 12.622 0 11-12.592 12.652 12.677 12.677 0 0112.592-12.652zm6.368 19.455c2.025-1.3 4.074-5.519 2.69-9.763a9.488 9.488 0 00-18.161.4c-1.134 3.858.77 8.119 2.75 9.318.379-3.035.526-3.355 2.554-5.522-1.345-2.812-1.041-4.98.916-6.548a4.685 4.685 0 015.761-.049c2.006 1.56 2.323 3.669.969 6.663a6.6 6.6 0 012.521 5.501zm-3.178 2.07c0-.923.022-1.806 0-2.686a3.184 3.184 0 00-2.807-3.052 3.143 3.143 0 00-3.43 2.46 15.157 15.157 0 00-.052 3.3 9.026 9.026 0 006.289-.022zm-1.582-10.491a1.579 1.579 0 10-1.545 1.588 1.583 1.583 0 001.546-1.587z" transform="translate(-14.553 -1.48)" fill="#03297d"/><path id="Path_37" d="M1231.8 402.433v-2.991h85.134a5.618 5.618 0 01.067 1.442c.014.49 0 .981 0 1.549z" transform="translate(-1.391 -7.864)" fill="#03297d"/><path id="Path_38" d="M1326.67 407.141v2.993h-40.944a26.475 26.475 0 01-.054-2.993z" transform="translate(-11.086 -9.25)" fill="#03297d"/><path id="Path_39" d="M1285.7 417.351v-2.991h40.941a26.241 26.241 0 01.058 2.991z" transform="translate(-11.094 -10.55)" fill="#03297d"/><path id="Path_40" d="M1285.7 424.573v-3h40.95a26.412 26.412 0 01.041 3z" transform="translate(-11.093 -11.849)" fill="#03297d"/><path id="Path_41" d="M1246.2 437.752v-3.032h6.224v-6.234c-.317-.245-.725-.121-1.1-.121-6.411-.009-12.822.006-19.234-.011a7.854 7.854 0 01-7.7-5.765 8.811 8.811 0 01-.321-2.432q.008-28.112.007-56.223a7.888 7.888 0 018.23-8.175q38.172-.009 76.345 0c1.743 0 3.485-.011 5.228 0a7.885 7.885 0 018.047 8.062q.022 28.21 0 56.421a7.9 7.9 0 01-8.2 8.115c-6.312.011-12.625 0-18.938.007a3.105 3.105 0 00-1.218.093v6.186h6.18c.143 1.085.041 2.059.08 3.109zm-18.981-22.083h91.566V363.72a4.693 4.693 0 00-4.891-4.818q-40.888-.007-81.774 0a4.893 4.893 0 00-1.175.1 4.732 4.732 0 00-3.721 4.813v51zm0 3.27c0 .608-.013 1.159 0 1.71a4.78 4.78 0 003.3 4.348 6.582 6.582 0 002.047.217h72.69c2.959 0 5.918.017 8.877-.007a4.706 4.706 0 004.458-3.405 9.008 9.008 0 00.161-2.86zm28.457 15.67h34.64v-6.193h-34.64z" fill="#03297d"/></g></svg>