<svg xmlns="http://www.w3.org/2000/svg" width="99.998" height="100"><g id="Group_9" transform="translate(-246.413 -361.514)"><path id="Path_29" d="M261.684 434.192a40.585 40.585 0 1168.495-22.279h3.215a43.758 43.758 0 00-27.951-47.626 43.735 43.735 0 00-49.035 68.787 43.734 43.734 0 0054.425 10.733l-.357-3.434a40.417 40.417 0 01-48.792-6.181z" fill="#03297d"/><path id="Path_30" d="M346.4 422.815c-.005-1.381-.561-1.926-1.966-1.928-3.156-.005-6.312 0-9.468-.008-.341 0-.714.121-1.06-.163 0-1.254-.038-2.523.013-3.788a2.177 2.177 0 00-1.01-2.236l-5.662-.1h-.732v-.012l-3.241-.056c-1.593.354-1.881.72-1.881 2.345v3.859a1.731 1.731 0 01-1.1.149c-3.123.01-6.246 0-9.369.007-1.509 0-2.023.528-2.025 2.065 0 1.822-.008 3.644 0 5.465.007 1.265.585 1.829 1.845 1.859a4.87 4.87 0 011.412.082 3.14 3.14 0 01.068.776l.5 4.875c.1.652.146 1.294.2 1.921l.657 6.4c.061.536.119 1.06.172 1.583.457 4.558.9 9.118 1.363 13.675.158 1.568.582 1.927 2.186 1.927H338c.195 0 .391.01.585 0a1.532 1.532 0 001.564-1.438c.275-2.52.53-5.041.78-7.563.29-2.91.561-5.821.849-8.731q.455-4.608.925-9.213c.144-1.411.3-2.821.452-4.208a4.825 4.825 0 011.341-.08c1.331-.022 1.9-.573 1.906-1.895q.015-2.784-.002-5.569zm-21.8-4.965h6.151v2.961H324.6zm12.582 40.441H318.15c-.931-9.3-1.862-18.59-2.8-27.982h24.629c-.936 9.333-1.864 18.618-2.8 27.982zm6.007-31.221h-31.1v-2.983h31.1z" fill="#ec4117"/><path id="Path_31" d="M327.06 411.913a36.781 36.781 0 00-5.917-27.735 36.335 36.335 0 00-19.9-14.726 37.5 37.5 0 108.889 67.558l-.371-3.567a34.214 34.214 0 01-17.876 6.184 3.06 3.06 0 01-.138-1.443 1.576 1.576 0 10-3.143.026 6 6 0 01-.08 1.42 34.244 34.244 0 01-21.409-8.88 5.15 5.15 0 01.944-1.087 1.6 1.6 0 00.01-2.276 1.528 1.528 0 00-2.192.016 8.589 8.589 0 00-.854 1.021c-4.366-3.007-9.519-15.261-9.13-21.5a4.3 4.3 0 011.327-.077 1.578 1.578 0 10-.042-3.139c-.416-.01-.833 0-1.236 0-.717-5.582 3.918-16.846 8.807-21.471.421.185.664.589 1 .886a1.62 1.62 0 002.276.088 1.573 1.573 0 000-2.272 5.723 5.723 0 01-.958-1.1 34.321 34.321 0 0121.54-8.925c0 .585-.02 1.067 0 1.546a1.564 1.564 0 103.127-.023c.023-.452 0-.906 0-1.515a34.539 34.539 0 0121.683 9.031 12.808 12.808 0 00-1.119.934 1.58 1.58 0 00-.1 2.2 1.554 1.554 0 002.267.077c.348-.289.66-.622.984-.932 4.212 2.838 9.406 15.182 9 21.38a2.373 2.373 0 01-1.135.094c-1.222.027-1.925.6-1.911 1.6s.712 1.537 1.956 1.547h1.152a34.815 34.815 0 01-.614 5.07z" fill="#03297d"/><path id="Path_32" d="M292.076 401.052c2.41 1.227 3.454 3.042 3.105 5.284a4.8 4.8 0 01-3.806 3.838c-2.168.391-3.944-.621-5.358-3.09h-12.151a4.811 4.811 0 01-.779-.022 1.565 1.565 0 01.042-3.1 6.569 6.569 0 01.877-.016h12.05a5.125 5.125 0 012.783-2.807 2.7 2.7 0 00.1-1.17q.007-10.145 0-20.289a7.777 7.777 0 01.012-.878 1.565 1.565 0 013.112-.02 6.743 6.743 0 01.014.877v20.289zm-1.564 2.915a1.548 1.548 0 00-.013 3.1 1.548 1.548 0 10.013-3.1z" fill="#03297d"/></g></svg>