<svg xmlns="http://www.w3.org/2000/svg" width="96.794" height="99.999"><g id="Group_4" transform="translate(-1085.154 -427.527)"><path id="Path_11" d="M1105.458 495.517c0-1.385-.005-2.747 0-4.109a.877.877 0 00-.364-.654 9.23 9.23 0 01-2.662-5.094 5.778 5.778 0 01-.094-1.064v-5.465a9.378 9.378 0 1118.756.073c-.013 1.594 0 3.188 0 4.782a9.237 9.237 0 01-2.652 6.612c-.221.23-.478.424-.474.809.015 1.362.006 2.724.006 4.123l4.757 2.1c1.457.642 2.92 1.269 4.37 1.927a7.819 7.819 0 014.92 7.62c.025 5.334.007 10.669.008 16v1.169h49.923v3c-.7.184-95.034.257-96.758.066a26.465 26.465 0 01.016-3.027h6.022a1.643 1.643 0 00.174-1.112q.011-8 0-16a7.871 7.871 0 015.106-7.788l7.762-3.415c.381-.17.757-.354 1.184-.553zm20.32 14.817v7.005c0 1.171-.012 2.342 0 3.513.015 1.155-.057 2.315.045 3.51a26.615 26.615 0 002.962-.063 1.623 1.623 0 00.1-.825c0-5.465.013-10.93 0-16.395a4.707 4.707 0 00-2.984-4.613q-2.8-1.25-5.617-2.482a.973.973 0 00-.771-.135v4.562c-1.518 0-2.913-.039-4.3.016a1.985 1.985 0 01-1.7-.727c-.552-.622-1.178-1.178-1.848-1.838-.7.737-1.339 1.388-1.956 2.056a1.381 1.381 0 01-1.1.5c-1.4-.021-2.8-.008-4.2-.01a.569.569 0 01-.53-.283v-4.338a1.7 1.7 0 00-.377.049c-2.083.914-4.186 1.787-6.237 2.767a4.555 4.555 0 00-2.71 4.389q-.015 8.295 0 16.59c0 .247-.085.525.2.774a23.2 23.2 0 002.94-.075v-13.6a19.544 19.544 0 013.107.031v6.833c0 1.139-.009 2.277 0 3.416.012 1.122-.052 2.248.042 3.334h21.809v-8.442c0-.911-.007-1.822 0-2.732.009-.928-.036-1.859.033-2.788zm-14.157-12.777a2.772 2.772 0 01.869.7c.879.869 1.756 1.739 2.621 2.622a.969.969 0 001.227.27v-2.878l-1.413-.68a2.15 2.15 0 01-.089-.918c-.005-2.081.021-4.163-.019-6.243a1.6 1.6 0 01.711-1.466 5.467 5.467 0 002.308-3.819 44.811 44.811 0 00.041-7.009 2.937 2.937 0 00-.123-.571 6.325 6.325 0 00-6.655-4.714 6.152 6.152 0 00-5.616 6.076q-.05 2.535 0 5.072a6.268 6.268 0 005.485 6.227c.191.028.392.03.512.176v3a10.739 10.739 0 01-2.86-.47v4.615l-1.553.756a24.266 24.266 0 00.007 2.858 1.1 1.1 0 001.316-.344c1.062-1.091 2.144-2.165 3.231-3.26z" fill="#2d3390"/><path id="Path_12" d="M1166.346 518.115v-71.667c-.72-.2-11.492-.24-12.624-.031v2.928h-24.8v-2.891c-.775-.205-11.239-.249-12.488-.061v20.162c-1.066.063-2.052.025-3.1.026v-23.329a9.191 9.191 0 012.272-.1c.78-.022 1.561 0 2.342 0h4.654v-9.337c1.1-.063 2.128-.028 3.153-.033h6.167a5.277 5.277 0 00.086-1.594 1.263 1.263 0 01.412-1.033 199.416 199.416 0 003.465-3.294 1.149 1.149 0 01.875-.328q4.734.01 9.466 0a1.212 1.212 0 01.933.422c1.049 1.066 2.1 2.13 3.178 3.17a1.336 1.336 0 01.436 1.124c-.026.478-.006.959-.006 1.519h9.35v9.368h9.227c.2.774.262 76.573.079 78.056h-27.984v-3.06c2.753-.023 5.5-.007 8.253-.011q4.148-.006 8.3 0zm-34.285-78.06v6.166h18.47c.128-2.073-.036-4.107.095-6.141h3.015c.2 1.025-.066 2.038.185 3.065a27.108 27.108 0 003.126-.064V436.9h-9.321c0-.629.005-1.144 0-1.658a7.452 7.452 0 00-.095-2.318c-.263-.736-1.1-1.165-1.625-1.779a1.405 1.405 0 00-1.2-.491c-1.625.026-3.251 0-4.876.015a6.294 6.294 0 00-2.319.088c-.737.3-1.192 1.082-1.818 1.6a1.522 1.522 0 00-.563 1.36c.038 1.03.011 2.063.011 3.208h-9.281a30.931 30.931 0 00.087 6.225 21.131 21.131 0 002.987-.1v-3z" fill="#2d3390"/><path id="Path_13" d="M1163.734 436.94h11.953v84.235a6.194 6.194 0 01-1.527.071c-.479.014-.959 0-1.508 0v-81.07a7.624 7.624 0 00-2.261-.133c-.714-.026-1.431 0-2.146 0h-4.503a20.03 20.03 0 01-.008-3.103z" fill="#2d3390"/><path id="Path_14" d="M1119.916 437.034a23.541 23.541 0 01.04 2.976h-9.78v26.521h-3c-.2-.7-.292-27.323-.1-29.476.718-.195 11.862-.222 12.84-.021z" fill="#2d3390"/><path id="Path_15" d="M1150.8 510.317v-3.077h9.284v3.06c-3.067.037-6.13.009-9.284.017z" fill="#2d3390"/><path id="Path_16" d="M1122.689 455.572v-2.995h6.088a3.416 3.416 0 01.118 1.484c.023.481.005.965.005 1.431a34.416 34.416 0 01-6.211.08z" fill="#2d3390"/><path id="Path_17" d="M1150.753 452.562h3.08a20.21 20.21 0 01.013 3.036h-2.969a3.392 3.392 0 01-.12-1.479c-.023-.481-.004-.964-.004-1.557z" fill="#2d3390"/><path id="Path_18" d="M1160.13 455.608h-3.073v-3.059c.963-.053 1.947-.023 3.049-.017.059 1.027.016 2.01.024 3.076z" fill="#2d3390"/><path id="Path_19" d="M1138.274 521.2h-3.087v-3.055c.979-.049 1.962-.034 3-.009a24.007 24.007 0 01.087 3.064z" fill="#2d3390"/><path id="Path_20" d="M1144.469 433.868v2.993h-6.182c-.054-.967-.024-1.952-.017-2.923a34.647 34.647 0 016.199-.07z" fill="#2d3390"/><g id="Group_3"><path id="Path_21" d="M1145.184 496.883v1.19a3.756 3.756 0 01-7.422.8 4.128 4.128 0 01-.092-.906V496.9a6.833 6.833 0 00-1.156-.241 12.684 12.684 0 01-3.361-1.129 4.683 4.683 0 01-1.469-1.142 2.21 2.21 0 010-2.963 4.649 4.649 0 011.348-1.078 10.191 10.191 0 011.549-.679c-.045-.124-.159-.119-.251-.152a11.526 11.526 0 01-3.067-1.59 5.937 5.937 0 01-1.231-1.216 3.584 3.584 0 01.153-4.658 7.047 7.047 0 011.738-1.467c.127-.078.253-.158.465-.29h-1.221a5.685 5.685 0 01-5.631-4.929c-.03-.21-.03-.424-.045-.639a1.775 1.775 0 00-.709-.159 5.62 5.62 0 01-4.409-5.173 9.388 9.388 0 01-.015-1.277.954.954 0 01.962-.96c.12-.011.243-.007.365-.007 2.452 0 4.9-.006 7.356 0a10.761 10.761 0 013.543.564 10.4 10.4 0 014.839 3.449.488.488 0 00.243.216v-.343c0-.762-.011-1.524.006-2.285a1 1 0 00-.252-.7 5.039 5.039 0 01-.143-6.264 5.152 5.152 0 118.13 6.326.969.969 0 00-.231.661c.012.882.005 1.765.005 2.663.156-.068.21-.2.293-.3a10.241 10.241 0 016.574-3.853 11.913 11.913 0 011.819-.133q3.656-.009 7.31 0a2.982 2.982 0 01.5.033.877.877 0 01.794.815 5.812 5.812 0 01-3.424 6.257 4.747 4.747 0 01-1.4.38.415.415 0 00-.283.1 5.65 5.65 0 01-2.112 4.3 6.19 6.19 0 01-4.752 1.229 1.405 1.405 0 00.449.335 7.169 7.169 0 011.673 1.4 3.62 3.62 0 01.012 4.945 7.633 7.633 0 01-2.257 1.757 13.231 13.231 0 01-1.879.822.425.425 0 00-.244.141 9.826 9.826 0 011.739.785 4.606 4.606 0 011.158.954 2.212 2.212 0 01.006 3 5.744 5.744 0 01-2.3 1.525 10.615 10.615 0 01-1.781.562c-.605.127-1.216.249-1.892.391zm15.409-27.758a.428.428 0 00-.335-.069c-2.269 0-4.538-.024-6.806.008a8.112 8.112 0 00-5.477 2.17 8.315 8.315 0 00-2.774 5.679 12.358 12.358 0 00-.008 1.427 1.278 1.278 0 00.152.03c2.223 0 4.446 0 6.669-.011a3.054 3.054 0 001.634-.519 3.62 3.62 0 001.78-2.968 12.08 12.08 0 01.045-1.277.914.914 0 01.9-.814c.182-.011.365 0 .548-.007a3.71 3.71 0 002.826-1.37 3.642 3.642 0 00.846-2.279zm-38.323-.013a3.721 3.721 0 002.363 3.4 4.8 4.8 0 001.746.27.924.924 0 011.018.937c.025.272.014.547.018.821a4.31 4.31 0 00.185 1.3 3.752 3.752 0 003.5 2.533c2.071-.01 4.142 0 6.213 0a.493.493 0 00.305-.041c.016-.029.04-.055.041-.081a9.4 9.4 0 00-.312-3.073 8.429 8.429 0 00-8.067-6.121c-2.223-.014-4.446 0-6.669 0a.528.528 0 00-.341.055zm20.963 26.11c.083-.733.053-25.194-.033-25.553a5.2 5.2 0 01-3.545.008c-.034.069-.059.1-.059.122q-.008 12.514-.012 25.029c0 .106.014.211.023.317a.076.076 0 00.02.04.334.334 0 00.05.037zm1.976-6.876c.385-.076.741-.135 1.092-.217a12.012 12.012 0 003.8-1.494 4.1 4.1 0 001.29-1.209 1.617 1.617 0 000-1.885 3.152 3.152 0 00-.435-.528 6.054 6.054 0 00-1.528-1.068 13.271 13.271 0 00-3.578-1.2 1.133 1.133 0 00-.642-.06zm-7.557-7.668a1.419 1.419 0 00-.632.068 12.86 12.86 0 00-3.939 1.389 4.54 4.54 0 00-1.608 1.392 1.612 1.612 0 000 1.922 3.931 3.931 0 001.11 1.071 11.974 11.974 0 004.486 1.71.979.979 0 00.579.057zm7.042-15.857a3.261 3.261 0 00-6.523.02 3.182 3.182 0 003.244 3.245 3.219 3.219 0 003.279-3.265zm-7.048 26.106a1.128 1.128 0 00-.6.059 11.451 11.451 0 00-2.861.886 3.753 3.753 0 00-.811.5c-.459.385-.455.686.011 1.077a3.9 3.9 0 00.855.518 11.464 11.464 0 002.687.838 1.308 1.308 0 00.721.064zm7.562 3.949a1.389 1.389 0 00.732-.07 11.077 11.077 0 002.849-.921 3.257 3.257 0 00.758-.5c.363-.338.371-.586.028-.926a3.067 3.067 0 00-.791-.531 10.388 10.388 0 00-2.5-.845 4.331 4.331 0 00-1.081-.175zm-5.568 2.275a.591.591 0 00-.049.142c0 .289-.013.578 0 .866a1.838 1.838 0 001.673 1.749 1.864 1.864 0 001.952-1.382 4.54 4.54 0 00.032-1.375z" fill="#f15a22" stroke="#f15a22" stroke-width="1"/></g></g></svg>