<svg xmlns="http://www.w3.org/2000/svg" width="32" height="23"><g id="Mail_2" transform="translate(-163.667 -153.91)" fill="#fff"><path id="Path_25" d="M191.667 153.91h-24a4 4 0 00-4 4v15a4 4 0 004 4h24a4 4 0 004-4v-15a4 4 0 00-4-4zm2 19a2 2 0 01-2 2h-24a2 2 0 01-2-2v-15a2 2 0 012-2h24a2 2 0 012 2z"/><path id="Path_26" d="M191.441 159.277a1 1 0 00-1.408-.141l-10.366 8.482-10.367-8.482a1 1 0 00-1.267 1.548l11 9a1 1 0 001.267 0l11-9a1 1 0 00.141-1.407z"/><path id="Path_27" d="M187.374 167.2a1 1 0 10-1.414 1.414l4 4a1 1 0 001.414-1.414z"/><path id="Path_28" d="M171.96 167.2l-4 4a1 1 0 101.414 1.414l4-4a1 1 0 00-1.414-1.414z"/></g></svg>