<svg xmlns="http://www.w3.org/2000/svg" width="30.5" height="30.5"><g id="Phone" transform="translate(-255.083 -150.41)" fill="#fff"><path id="Path_22" d="M285.5 163.975a25.547 25.547 0 00-13.555-13.49.976.976 0 00-1.285.56 1.029 1.029 0 00.543 1.326 23.558 23.558 0 0112.5 12.438.986.986 0 00.9.6.952.952 0 00.4-.09 1.03 1.03 0 00.497-1.344z"/><path id="Path_23" d="M270.679 157.8a14.271 14.271 0 017.58 7.527.953.953 0 00.871.58.921.921 0 00.39-.087.993.993 0 00.479-1.3 16.2 16.2 0 00-8.6-8.543.945.945 0 00-1.243.541.994.994 0 00.523 1.282z"/><path id="Path_24" d="M280.314 169.677a2.327 2.327 0 00-3.515 0c-.822.815-1.644 1.63-2.452 2.459a.558.558 0 01-.394.211.574.574 0 01-.282-.087c-.532-.29-1.1-.525-1.61-.843a25.5 25.5 0 01-6.146-5.593 14.6 14.6 0 01-2.2-3.529.506.506 0 01.124-.649c.822-.794 1.623-1.609 2.431-2.424a2.334 2.334 0 00-.006-3.6c-.643-.649-1.285-1.284-1.927-1.933-.663-.663-1.319-1.333-1.989-1.99a2.34 2.34 0 00-3.515.008c-.829.815-1.623 1.65-2.466 2.451a4.005 4.005 0 00-1.257 2.7 11.429 11.429 0 00.885 4.924 29.913 29.913 0 005.31 8.846 32.86 32.86 0 0010.884 8.515 15.74 15.74 0 006.028 1.754c.131.007.26.011.387.011a4.308 4.308 0 003.4-1.454c.7-.788 1.5-1.506 2.244-2.258a2.35 2.35 0 00.014-3.578q-1.962-1.977-3.948-3.941zm2.516 6.113c-.246.248-.5.493-.75.737-.518.5-1.055 1.025-1.566 1.6a2.327 2.327 0 01-1.913.786c-.09 0-.182 0-.278-.008a13.584 13.584 0 01-5.263-1.556 31.013 31.013 0 01-10.228-8 27.807 27.807 0 01-4.968-8.262 9.4 9.4 0 01-.763-4.063 2.021 2.021 0 01.641-1.408c.521-.494 1.023-1 1.526-1.509.319-.323.639-.646.967-.968a.4.4 0 01.71 0c.441.432.875.869 1.309 1.306l.658.661c.327.331.654.658.981.985s.631.63.949.952c.368.37.347.436 0 .78l-.337.34c-.685.691-1.366 1.38-2.088 2.078a2.491 2.491 0 00-.554 2.838 16.316 16.316 0 002.5 4.017 27.364 27.364 0 006.64 6.029c.394.244.791.439 1.141.612.191.093.381.186.54.273a2.553 2.553 0 001.267.346 2.5 2.5 0 001.826-.815c.79-.81 1.593-1.607 2.429-2.436a.384.384 0 01.7 0q1.975 1.965 3.942 3.935c.301.295.333.395-.018.75z"/></g></svg>